<?xml version="1.0" standalone="no"?>
<!DOCTYPE svg PUBLIC "-//W3C//DTD SVG 20010904//EN"
 "http://www.w3.org/TR/2001/REC-SVG-20010904/DTD/svg10.dtd">
<svg version="1.0" xmlns="http://www.w3.org/2000/svg"
 width="700.000000pt" height="700.000000pt" viewBox="0 0 700.000000 700.000000"
 preserveAspectRatio="xMidYMid meet">
<metadata>
Created by potrace 1.14, written by Peter Selinger 2001-2017
</metadata>
<g transform="translate(0.000000,700.000000) scale(0.100000,-0.100000)"
fill="#000000" stroke="none">
<path d="M3965 6988 c-53 -20 -98 -54 -175 -130 -67 -67 -200 -229 -200 -244
0 -3 -15 -28 -33 -57 -95 -148 -183 -439 -213 -702 -3 -33 -9 -69 -11 -80 -9
-37 -11 -399 -3 -465 5 -36 11 -90 14 -120 5 -47 11 -94 20 -155 1 -8 4 -16 7
-19 2 -2 52 42 111 97 l107 102 6 89 c9 146 23 222 67 381 109 393 253 601
398 575 87 -16 122 -69 124 -189 1 -111 -24 -258 -54 -313 -6 -10 -10 -23 -10
-29 0 -22 -89 -194 -141 -274 -122 -188 -236 -308 -454 -480 -77 -60 -145
-114 -151 -120 -6 -5 -53 -48 -105 -95 -176 -160 -409 -390 -511 -504 -281
-316 -464 -679 -504 -1001 -10 -74 -10 -291 -2 -366 51 -427 319 -878 662
-1111 114 -78 298 -157 404 -173 21 -3 49 -8 62 -11 14 -3 96 -7 184 -10 l159
-4 -7 78 c-9 94 -16 153 -21 168 -2 7 -34 11 -83 11 -168 1 -300 30 -439 98
-248 121 -446 341 -518 575 -38 126 -22 389 33 540 3 8 6 17 6 20 5 24 48 122
88 198 97 189 198 322 383 508 166 166 176 175 422 371 269 215 405 363 546
591 128 206 250 514 282 712 3 19 8 42 10 50 38 133 52 471 26 645 -20 134
-23 151 -46 260 -47 222 -121 409 -193 494 -67 79 -173 117 -247 89z"/>
<path d="M3626 4033 l-117 -86 6 -63 c3 -34 7 -71 9 -81 2 -10 7 -52 11 -94
l7 -76 -33 -13 c-76 -31 -188 -110 -269 -190 -197 -194 -282 -397 -275 -655 3
-115 18 -192 55 -285 66 -168 216 -330 352 -382 77 -29 180 -21 194 16 8 21
-27 89 -90 178 -77 108 -99 178 -93 293 5 110 39 193 112 273 46 51 130 110
141 99 3 -3 7 -18 10 -34 4 -34 23 -184 29 -233 2 -19 7 -55 10 -80 3 -25 8
-63 10 -84 4 -34 11 -88 30 -231 3 -16 9 -68 15 -115 6 -47 13 -96 15 -110 2
-14 7 -52 11 -85 3 -33 8 -67 9 -75 2 -8 6 -44 10 -80 4 -36 9 -72 10 -81 2
-9 6 -40 10 -70 5 -46 25 -174 40 -259 26 -145 37 -212 42 -250 3 -25 9 -72
13 -105 9 -63 6 -314 -4 -378 -10 -61 -73 -217 -88 -217 -5 0 -8 -5 -8 -10 0
-11 -39 -58 -80 -96 -26 -25 -139 -88 -145 -82 -3 2 8 20 24 39 131 160 159
390 70 578 -69 149 -199 259 -358 303 -98 27 -244 20 -335 -17 -119 -49 -201
-115 -269 -218 -98 -148 -119 -355 -53 -524 82 -210 296 -375 563 -433 105
-23 289 -21 388 5 148 37 296 125 395 233 74 80 74 81 108 148 59 119 66 161
67 389 0 206 -7 299 -35 480 -5 33 -12 78 -15 100 -3 23 -7 52 -10 65 -3 13
-7 42 -10 65 -3 22 -10 65 -15 95 -6 30 -12 75 -15 100 -3 25 -8 61 -10 80 -2
19 -7 51 -10 70 -5 39 -15 111 -20 153 -11 80 -27 195 -30 217 -2 14 -7 48
-10 75 -4 28 -11 78 -16 111 -5 34 -11 82 -13 106 -3 24 -9 73 -15 108 -6 36
-13 90 -16 120 -3 30 -10 82 -15 115 -22 138 -22 145 -1 145 30 0 153 -66 192
-103 55 -52 100 -123 121 -191 45 -145 6 -416 -88 -596 -15 -30 -28 -57 -27
-60 1 -3 4 -27 8 -55 11 -81 12 -88 20 -140 4 -27 9 -59 11 -70 13 -71 17 -85
21 -85 2 0 35 18 72 40 139 80 237 172 326 306 131 195 186 396 180 659 -10
430 -263 815 -616 941 -68 24 -187 44 -260 44 l-67 0 -6 43 c-4 24 -9 55 -11
68 -2 13 -6 42 -9 64 -4 35 -25 197 -30 232 -1 7 -4 15 -7 17 -3 3 -58 -33
-123 -81z"/>
</g>
</svg>
